<svg width="24" height="24" viewBox="0 0 24 24" fill="none" xmlns="http://www.w3.org/2000/svg">
<g clip-path="url(#clip0)">
<path d="M21.002 3.74866H6.00728C5.17915 3.74866 4.50781 4.42 4.50781 5.24813C4.50781 6.07626 5.17915 6.7476 6.00728 6.7476H21.002C21.8301 6.7476 22.5015 6.07626 22.5015 5.24813C22.5015 4.42 21.8301 3.74866 21.002 3.74866Z" fill="#455AF7"/>
<path d="M3.00734 5.24817C3.00566 4.85113 2.84657 4.47097 2.565 4.19104C1.98016 3.60966 1.03559 3.60966 0.450744 4.19104C0.169124 4.47097 0.0100394 4.85113 0.00839939 5.24817C-0.0027998 5.3453 -0.0027998 5.44342 0.00839939 5.54056C0.0253622 5.63826 0.0530087 5.73381 0.0908704 5.82546C0.131122 5.91426 0.178777 5.99954 0.23332 6.08037C0.287161 6.16444 0.349998 6.24236 0.420754 6.31279C0.48898 6.38074 0.564376 6.44109 0.645675 6.49273C0.724632 6.55022 0.810242 6.59807 0.900586 6.63518C0.999973 6.68672 1.10592 6.72458 1.21547 6.74764C1.31261 6.75851 1.41073 6.75851 1.50787 6.74764C1.90383 6.74797 2.28385 6.59165 2.565 6.31279C2.63576 6.24236 2.69859 6.16444 2.75243 6.08037C2.80698 5.99954 2.85463 5.91426 2.89488 5.82546C2.94273 5.73493 2.98045 5.63939 3.00734 5.54056C3.01854 5.44342 3.01854 5.3453 3.00734 5.24817Z" fill="#455AF7"/>
<path d="M3.00774 11.9957C3.01889 11.8986 3.01889 11.8005 3.00774 11.7033C2.98182 11.6066 2.94405 11.5134 2.89527 11.4259C2.85666 11.3339 2.80891 11.246 2.75282 11.1635C2.70086 11.0804 2.63779 11.0047 2.56539 10.9386C1.98055 10.3572 1.03597 10.3572 0.451134 10.9386C0.169514 11.2185 0.0104291 11.5987 0.00878906 11.9957C0.0116943 12.1933 0.0497903 12.3888 0.12125 12.573C0.15883 12.6617 0.204002 12.747 0.256202 12.8279C0.313229 12.9094 0.37855 12.9848 0.451134 13.0528C0.517392 13.1251 0.593021 13.1882 0.676055 13.2403C0.755011 13.2978 0.840575 13.3457 0.930965 13.3827C1.02239 13.4212 1.11802 13.4489 1.21586 13.4652C1.31178 13.4867 1.40995 13.4968 1.50826 13.4952C1.6054 13.5064 1.70352 13.5064 1.80066 13.4952C1.89606 13.4788 1.98922 13.4511 2.07806 13.4127C2.17089 13.3759 2.25898 13.328 2.34047 13.2703C2.4235 13.2182 2.49913 13.1551 2.56539 13.0828C2.63765 13.0166 2.70072 12.9409 2.75282 12.8579C2.81046 12.779 2.8583 12.6934 2.89527 12.603C2.94649 12.5035 2.98431 12.3976 3.00774 12.2881C3.01926 12.191 3.01926 12.0929 3.00774 11.9957Z" fill="#455AF7"/>
<path d="M3.00685 18.7434C3.01796 18.6463 3.01796 18.5481 3.00685 18.451C2.98094 18.3519 2.94317 18.2562 2.89439 18.1661C2.85414 18.0773 2.80648 17.992 2.75194 17.9112C2.69983 17.8282 2.63676 17.7525 2.56451 17.6863C1.97966 17.1049 1.03509 17.1049 0.450249 17.6863C0.377993 17.7525 0.314921 17.8282 0.262815 17.9112C0.208271 17.992 0.160616 18.0773 0.120365 18.1661C0.0814723 18.2574 0.0537789 18.3531 0.0378939 18.451C0.0167607 18.547 0.00673295 18.6451 0.00790442 18.7434C0.00959132 19.1404 0.168676 19.5206 0.450249 19.8005C0.516507 19.8728 0.592136 19.9359 0.67517 19.988C0.754126 20.0455 0.83969 20.0933 0.93008 20.1304C1.0215 20.1689 1.11714 20.1966 1.21498 20.2129C1.3109 20.2344 1.40907 20.2445 1.50738 20.2429C1.60451 20.2541 1.70264 20.2541 1.79977 20.2429C1.89518 20.2265 1.98833 20.1988 2.07718 20.1604C2.17 20.1236 2.2581 20.0757 2.33958 20.018C2.42262 19.9658 2.49825 19.9028 2.56451 19.8305C2.63676 19.7643 2.69983 19.6886 2.75194 19.6056C2.80962 19.5267 2.85746 19.4411 2.89439 19.3507C2.94556 19.2511 2.98337 19.1453 3.00685 19.0358C3.01838 18.9387 3.01838 18.8405 3.00685 18.7434Z" fill="#455AF7"/>
<path d="M22.5015 10.4963H6.00729C5.17915 10.4963 4.50781 11.1677 4.50781 11.9958C4.50781 12.8239 5.17915 13.4953 6.00729 13.4953H22.5015C23.3296 13.4953 24.001 12.8239 24.001 11.9958C24.001 11.1677 23.3296 10.4963 22.5015 10.4963Z" fill="#455AF7"/>
<path d="M15.7539 17.2439H6.00729C5.17915 17.2439 4.50781 17.9152 4.50781 18.7434C4.50781 19.5715 5.17915 20.2428 6.00729 20.2428H15.7539C16.582 20.2428 17.2533 19.5715 17.2533 18.7434C17.2533 17.9152 16.582 17.2439 15.7539 17.2439Z" fill="#455AF7"/>
</g>
<defs>
<clipPath id="clip0">
<rect width="24" height="24" fill="white"/>
</clipPath>
</defs>
</svg>
