<svg width="20" height="20" viewBox="0 0 20 20" fill="none" xmlns="http://www.w3.org/2000/svg">
<path fill-rule="evenodd" clip-rule="evenodd" d="M2.66634 0.833374H17.333C18.3413 0.833374 19.1663 1.65837 19.1663 2.66671V17.3334C19.1663 18.3417 18.3413 19.1667 17.333 19.1667H2.66634C1.65801 19.1667 0.833008 18.3417 0.833008 17.3334V2.66671C0.833008 1.65837 1.65801 0.833374 2.66634 0.833374ZM2.66634 17.3334H6.33301V13.6667H2.66634V17.3334ZM6.33301 11.8334H2.66634V8.16671H6.33301V11.8334ZM2.66634 6.33337H6.33301V2.66671H2.66634V6.33337ZM11.833 17.3334H8.16634V13.6667H11.833V17.3334ZM8.16634 11.8334H11.833V8.16671H8.16634V11.8334ZM11.833 6.33337H8.16634V2.66671H11.833V6.33337ZM13.6663 17.3334H17.333V13.6667H13.6663V17.3334ZM17.333 11.8334H13.6663V8.16671H17.333V11.8334ZM13.6663 6.33337H17.333V2.66671H13.6663V6.33337Z" fill="#B4B4B4"/>
</svg>
