<svg width="21" height="17" viewBox="0 0 21 17" fill="none" xmlns="http://www.w3.org/2000/svg">
<rect width="21" height="17" fill="white"/>
<path fill-rule="evenodd" clip-rule="evenodd" d="M0.864258 2.25C0.864258 1.38542 1.56217 0.6875 2.42676 0.6875C3.29134 0.6875 3.98926 1.38542 3.98926 2.25C3.98926 3.11458 3.29134 3.8125 2.42676 3.8125C1.56217 3.8125 0.864258 3.11458 0.864258 2.25ZM0.864258 8.5C0.864258 7.63542 1.56217 6.9375 2.42676 6.9375C3.29134 6.9375 3.98926 7.63542 3.98926 8.5C3.98926 9.36458 3.29134 10.0625 2.42676 10.0625C1.56217 10.0625 0.864258 9.36458 0.864258 8.5ZM2.42676 13.1875C1.56217 13.1875 0.864258 13.8958 0.864258 14.75C0.864258 15.6042 1.57259 16.3125 2.42676 16.3125C3.28092 16.3125 3.98926 15.6042 3.98926 14.75C3.98926 13.8958 3.29134 13.1875 2.42676 13.1875ZM20.1351 15.7917H5.55176V13.7083H20.1351V15.7917ZM5.55176 9.54167H20.1351V7.45833H5.55176V9.54167ZM5.55176 3.29167V1.20833H20.1351V3.29167H5.55176Z" fill="#8B8B8B" fill-opacity="0.54"/>
</svg>
